<?xml version="1.0" encoding="UTF-8"?>
<svg
  xmlns="http://www.w3.org/2000/svg"
  viewBox="12 -6 836 858"
  role="img"
  aria-labelledby="map-title map-desc"
  preserveAspectRatio="xMidYMid meet"
>
  <title id="map-title">Mapa do Brasil dividido por unidades federativas</title>
  <desc id="map-desc">Mapa vetorial responsivo com os 26 estados e o Distrito Federal em elementos separados e identificados por sigla.</desc>

  <metadata id="state-anchor-data"><![CDATA[
{
  "RR": {
    "name": "Roraima",
    "cx": 285.14,
    "cy": 74.9
  },
  "AP": {
    "name": "Amapá",
    "cx": 480.58,
    "cy": 88.71
  },
  "PA": {
    "name": "Pará",
    "cx": 456.75,
    "cy": 204.46
  },
  "AM": {
    "name": "Amazonas",
    "cx": 216.61,
    "cy": 208.63
  },
  "MA": {
    "name": "Maranhão",
    "cx": 618.06,
    "cy": 226.75
  },
  "PI": {
    "name": "Piauí",
    "cx": 665.6,
    "cy": 276.82
  },
  "CE": {
    "name": "Ceará",
    "cx": 734.78,
    "cy": 227.18
  },
  "RN": {
    "name": "Rio Grande do Norte",
    "cx": 796.38,
    "cy": 242.73
  },
  "TO": {
    "name": "Tocantins",
    "cx": 554.49,
    "cy": 335.66
  },
  "PB": {
    "name": "Paraíba",
    "cx": 792.95,
    "cy": 270.87
  },
  "AC": {
    "name": "Acre",
    "cx": 97.84,
    "cy": 317.2
  },
  "PE": {
    "name": "Pernambuco",
    "cx": 768.53,
    "cy": 296.44
  },
  "MT": {
    "name": "Mato Grosso",
    "cx": 398.33,
    "cy": 394.74
  },
  "RO": {
    "name": "Rondônia",
    "cx": 255.3,
    "cy": 351.82
  },
  "BA": {
    "name": "Bahia",
    "cx": 691.54,
    "cy": 384.38
  },
  "AL": {
    "name": "Alagoas",
    "cx": 797.01,
    "cy": 322.19
  },
  "SE": {
    "name": "Sergipe",
    "cx": 780.08,
    "cy": 344.76
  },
  "GO": {
    "name": "Goiás",
    "cx": 527.37,
    "cy": 461.25
  },
  "MG": {
    "name": "Minas Gerais",
    "cx": 630.97,
    "cy": 512.23
  },
  "DF": {
    "name": "Distrito Federal",
    "cx": 565.68,
    "cy": 455.01
  },
  "MS": {
    "name": "Mato Grosso do Sul",
    "cx": 420.3,
    "cy": 552.3
  },
  "ES": {
    "name": "Espírito Santo",
    "cx": 713.46,
    "cy": 536.13
  },
  "SP": {
    "name": "São Paulo",
    "cx": 545.83,
    "cy": 593.08
  },
  "RJ": {
    "name": "Rio de Janeiro",
    "cx": 674.49,
    "cy": 591.15
  },
  "PR": {
    "name": "Paraná",
    "cx": 486.44,
    "cy": 643.72
  },
  "SC": {
    "name": "Santa Catarina",
    "cx": 511.29,
    "cy": 699.51
  },
  "RS": {
    "name": "Rio Grande do Sul",
    "cx": 453.43,
    "cy": 753.52
  }
}
  ]]></metadata>

  <style>
    .state {
      fill: #E8F1F6;
      stroke: #FFFFFF;
      stroke-width: 2.2;
      stroke-linejoin: round;
      stroke-linecap: round;
      vector-effect: non-scaling-stroke;
      transition: fill 160ms ease, opacity 160ms ease;
      cursor: pointer;
    }

    .state:hover,
    .state:focus {
      fill: #D6E8F2;
      outline: none;
    }

    .country-outline {
      fill: none;
      stroke: #C8D6E0;
      stroke-width: 1.6;
      stroke-linejoin: round;
      vector-effect: non-scaling-stroke;
      pointer-events: none;
    }

    .state-anchor {
      fill: transparent;
      stroke: none;
      pointer-events: none;
    }
  </style>

  <g id="brazil-states">
    <path id="BR-RR" class="state" data-uf="RR" data-name="Roraima" d="M 311 8 L 301 9 L 302 14 L 297 18 L 293 23 L 291 23 L 289 25 L 283 25 L 283 27 L 281 29 L 278 29 L 276 31 L 273 32 L 266 32 L 263 31 L 261 34 L 257 34 L 258 37 L 258 40 L 257 41 L 251 42 L 250 39 L 246 37 L 246 35 L 244 35 L 242 37 L 239 37 L 238 36 L 231 36 L 228 32 L 218 32 L 218 34 L 220 37 L 224 39 L 228 44 L 227 46 L 227 53 L 232 60 L 231 66 L 235 68 L 243 67 L 244 68 L 244 72 L 248 72 L 250 75 L 254 75 L 258 78 L 257 86 L 260 89 L 261 95 L 263 96 L 263 102 L 262 103 L 263 114 L 269 126 L 267 129 L 267 132 L 265 134 L 265 138 L 268 139 L 273 144 L 274 147 L 278 149 L 280 149 L 280 143 L 281 142 L 280 139 L 281 136 L 284 132 L 288 131 L 289 129 L 294 130 L 295 132 L 298 134 L 299 137 L 303 137 L 303 136 L 306 134 L 305 131 L 306 126 L 309 121 L 310 117 L 312 116 L 313 113 L 336 113 L 336 93 L 334 91 L 328 90 L 325 85 L 319 81 L 318 79 L 318 71 L 315 68 L 315 65 L 313 61 L 313 57 L 316 50 L 316 43 L 320 40 L 321 38 L 321 33 L 319 30 L 319 25 L 311 24 L 310 23 L 312 20 L 312 17 L 313 16 L 313 12 Z">
      <title>Roraima (RR)</title>
    </path>
    <path id="BR-AP" class="state" data-uf="AP" data-name="Amapá" d="M 491 26 L 488 26 L 488 30 L 487 32 L 484 34 L 484 36 L 480 40 L 476 48 L 473 51 L 472 56 L 469 60 L 469 64 L 464 70 L 461 71 L 459 74 L 458 73 L 453 73 L 451 71 L 445 71 L 444 70 L 440 70 L 439 72 L 436 72 L 435 73 L 430 73 L 426 70 L 422 70 L 422 76 L 424 80 L 426 81 L 432 81 L 436 86 L 440 88 L 444 88 L 451 94 L 450 95 L 450 99 L 456 104 L 456 113 L 459 117 L 459 120 L 460 122 L 465 126 L 465 130 L 469 132 L 469 136 L 471 138 L 471 141 L 474 143 L 479 143 L 480 142 L 481 143 L 484 143 L 485 142 L 485 136 L 492 127 L 492 125 L 501 117 L 505 116 L 509 112 L 509 110 L 512 105 L 518 103 L 519 100 L 521 98 L 521 95 L 522 94 L 522 84 L 521 82 L 516 81 L 511 73 L 507 73 L 506 74 L 505 73 L 505 70 L 504 67 L 502 66 L 502 62 L 500 59 L 499 53 L 498 52 L 498 48 L 497 47 L 498 45 L 497 42 L 497 36 L 495 34 L 494 29 Z">
      <title>Amapá (AP)</title>
    </path>
    <path id="BR-PA" class="state" data-uf="PA" data-name="Pará" d="M 348 86 L 348 87 L 346 88 L 346 91 L 344 93 L 340 93 L 337 95 L 337 120 L 338 121 L 338 127 L 341 129 L 341 134 L 345 136 L 347 139 L 348 143 L 353 143 L 354 142 L 356 144 L 357 149 L 360 150 L 361 152 L 363 152 L 368 155 L 372 155 L 376 160 L 380 161 L 382 163 L 382 165 L 390 164 L 392 162 L 394 163 L 391 167 L 388 168 L 388 173 L 379 191 L 379 193 L 370 211 L 370 213 L 365 222 L 365 224 L 361 231 L 361 233 L 357 240 L 357 242 L 353 249 L 353 251 L 350 257 L 346 260 L 346 266 L 351 271 L 352 275 L 356 279 L 358 283 L 359 289 L 361 293 L 363 294 L 362 299 L 364 305 L 367 306 L 368 308 L 372 309 L 374 311 L 375 315 L 379 315 L 381 318 L 386 318 L 387 319 L 398 319 L 399 320 L 411 320 L 412 321 L 422 321 L 423 322 L 435 322 L 436 323 L 448 323 L 449 324 L 461 324 L 462 325 L 476 325 L 477 326 L 491 326 L 492 327 L 515 328 L 517 325 L 517 322 L 519 319 L 519 317 L 523 313 L 524 310 L 527 307 L 529 307 L 532 302 L 532 300 L 535 297 L 537 291 L 537 285 L 533 282 L 533 278 L 536 275 L 536 267 L 541 263 L 547 261 L 548 257 L 552 254 L 552 251 L 554 249 L 554 247 L 556 246 L 555 242 L 558 240 L 558 238 L 554 235 L 549 235 L 546 233 L 566 216 L 569 216 L 574 209 L 574 207 L 578 204 L 580 201 L 581 194 L 583 192 L 583 190 L 586 188 L 589 183 L 588 180 L 589 179 L 589 176 L 593 173 L 593 167 L 596 166 L 597 164 L 597 158 L 596 156 L 599 155 L 599 144 L 593 142 L 592 140 L 588 140 L 586 138 L 579 137 L 576 133 L 574 133 L 572 136 L 569 134 L 562 134 L 553 131 L 552 130 L 553 125 L 544 125 L 540 122 L 534 120 L 529 115 L 528 112 L 521 113 L 519 111 L 519 106 L 518 105 L 513 105 L 511 107 L 509 113 L 506 116 L 501 118 L 497 122 L 495 122 L 491 129 L 486 135 L 486 141 L 483 144 L 477 146 L 476 144 L 472 143 L 469 140 L 468 132 L 465 131 L 464 129 L 464 125 L 462 123 L 459 122 L 456 113 L 454 111 L 455 104 L 449 99 L 449 96 L 446 91 L 444 90 L 440 90 L 436 88 L 432 83 L 423 82 L 421 80 L 421 76 L 420 75 L 421 71 L 418 65 L 411 66 L 409 68 L 397 67 L 396 68 L 396 72 L 399 76 L 399 78 L 397 80 L 392 80 L 388 78 L 379 80 L 376 79 L 374 77 L 372 77 L 371 78 L 368 78 L 365 84 L 359 83 L 357 84 L 354 88 Z">
      <title>Pará (PA)</title>
    </path>
    <path id="BR-AM" class="state" data-uf="AM" data-name="Amazonas" d="M 111 84 L 111 95 L 120 95 L 122 96 L 125 99 L 125 104 L 126 105 L 123 107 L 121 107 L 119 105 L 116 105 L 110 108 L 107 108 L 107 124 L 116 131 L 117 139 L 120 141 L 120 148 L 119 149 L 119 153 L 117 159 L 117 164 L 116 165 L 116 170 L 115 171 L 115 176 L 114 177 L 114 182 L 112 188 L 112 193 L 111 194 L 111 199 L 110 200 L 109 209 L 107 212 L 102 212 L 100 209 L 90 209 L 87 213 L 84 213 L 79 215 L 75 215 L 74 216 L 68 216 L 65 219 L 62 220 L 60 222 L 58 222 L 58 223 L 54 225 L 53 227 L 48 229 L 46 240 L 44 243 L 42 244 L 41 247 L 41 252 L 43 255 L 43 257 L 40 260 L 38 260 L 32 263 L 30 266 L 30 271 L 38 275 L 40 275 L 51 281 L 59 282 L 67 285 L 75 286 L 76 287 L 79 287 L 88 290 L 97 291 L 136 312 L 138 312 L 145 316 L 147 316 L 171 327 L 173 327 L 179 324 L 181 322 L 182 319 L 190 319 L 192 321 L 196 321 L 198 319 L 200 319 L 201 317 L 204 317 L 205 316 L 207 317 L 207 319 L 209 319 L 211 316 L 211 312 L 214 310 L 222 310 L 223 309 L 227 310 L 227 306 L 230 304 L 231 302 L 231 297 L 234 295 L 236 295 L 239 288 L 254 288 L 259 292 L 259 294 L 261 296 L 265 298 L 265 300 L 269 303 L 270 306 L 272 307 L 275 307 L 276 304 L 279 304 L 281 306 L 345 306 L 346 304 L 346 300 L 348 296 L 348 289 L 346 286 L 348 285 L 350 282 L 351 272 L 350 270 L 346 267 L 344 263 L 349 257 L 354 247 L 354 245 L 358 238 L 358 236 L 363 227 L 363 225 L 367 218 L 367 216 L 373 205 L 373 203 L 385 178 L 385 176 L 387 173 L 388 166 L 384 166 L 383 167 L 381 166 L 380 163 L 375 160 L 373 157 L 368 157 L 366 155 L 362 154 L 358 150 L 356 150 L 355 149 L 355 144 L 352 145 L 348 144 L 345 140 L 345 138 L 339 132 L 339 129 L 336 126 L 336 114 L 313 114 L 312 118 L 310 119 L 310 121 L 306 129 L 306 131 L 308 134 L 304 136 L 303 138 L 298 138 L 297 137 L 297 134 L 293 131 L 285 132 L 284 134 L 282 135 L 282 144 L 281 145 L 282 150 L 281 151 L 278 149 L 275 149 L 273 147 L 272 144 L 261 135 L 265 132 L 267 128 L 265 119 L 263 117 L 262 110 L 261 109 L 262 96 L 260 94 L 259 89 L 255 85 L 257 83 L 257 78 L 254 76 L 251 76 L 249 74 L 242 74 L 239 75 L 237 77 L 231 77 L 230 78 L 230 84 L 227 86 L 224 90 L 220 89 L 216 93 L 212 93 L 211 95 L 208 96 L 207 99 L 204 100 L 202 104 L 199 106 L 198 105 L 199 99 L 194 99 L 187 104 L 186 103 L 183 103 L 173 94 L 168 94 L 167 93 L 167 84 L 166 83 L 166 80 L 164 80 L 162 78 L 162 74 L 161 73 L 158 73 L 155 77 L 152 77 L 150 80 L 144 78 L 144 80 L 146 82 L 145 83 L 119 83 L 118 82 L 115 82 Z">
      <title>Amazonas (AM)</title>
    </path>
    <path id="BR-MA" class="state" data-uf="MA" data-name="Maranhão" d="M 603 145 L 601 145 L 601 152 L 599 156 L 598 164 L 595 167 L 595 172 L 591 176 L 592 179 L 590 181 L 590 184 L 582 196 L 582 199 L 580 203 L 576 206 L 575 209 L 568 218 L 565 218 L 554 227 L 554 229 L 558 231 L 563 230 L 565 233 L 567 233 L 573 237 L 573 243 L 574 244 L 574 251 L 575 253 L 573 258 L 572 268 L 569 271 L 569 273 L 571 273 L 573 275 L 573 279 L 577 284 L 579 285 L 579 287 L 580 287 L 581 289 L 587 287 L 591 287 L 594 290 L 593 295 L 587 299 L 585 303 L 585 307 L 583 309 L 583 312 L 587 315 L 587 318 L 591 320 L 592 322 L 591 323 L 591 327 L 593 328 L 594 333 L 596 335 L 599 336 L 605 335 L 606 319 L 604 317 L 603 307 L 606 304 L 609 295 L 611 293 L 611 287 L 613 285 L 613 283 L 621 278 L 625 278 L 628 275 L 631 275 L 635 271 L 638 270 L 642 263 L 651 261 L 655 264 L 657 264 L 658 263 L 663 263 L 666 261 L 667 259 L 667 252 L 663 248 L 663 245 L 662 244 L 662 239 L 664 238 L 668 233 L 668 226 L 667 225 L 667 222 L 665 220 L 667 217 L 667 213 L 665 212 L 665 209 L 667 207 L 668 204 L 670 203 L 672 196 L 674 195 L 676 192 L 681 192 L 682 189 L 685 188 L 689 183 L 688 178 L 685 178 L 684 177 L 674 177 L 671 176 L 668 173 L 659 169 L 656 169 L 655 170 L 653 168 L 650 168 L 644 175 L 643 172 L 639 172 L 638 173 L 636 171 L 635 165 L 633 164 L 633 161 L 630 158 L 627 157 L 627 155 L 625 152 L 622 153 L 619 152 L 616 156 L 615 153 L 613 151 L 613 149 L 608 149 Z">
      <title>Maranhão (MA)</title>
    </path>
    <path id="BR-PI" class="state" data-uf="PI" data-name="Piauí" d="M 699 182 L 696 182 L 693 181 L 691 179 L 689 179 L 690 183 L 688 186 L 684 189 L 681 193 L 675 194 L 672 197 L 672 200 L 668 207 L 666 208 L 666 212 L 668 214 L 667 222 L 669 225 L 669 233 L 666 235 L 664 239 L 664 249 L 669 253 L 667 261 L 664 264 L 659 264 L 658 265 L 655 265 L 653 263 L 643 264 L 639 270 L 632 274 L 630 277 L 627 277 L 625 279 L 617 281 L 613 286 L 613 290 L 609 298 L 609 301 L 607 305 L 604 308 L 606 318 L 608 320 L 607 322 L 606 337 L 608 337 L 608 336 L 611 334 L 615 340 L 615 345 L 617 348 L 626 351 L 633 345 L 636 344 L 642 345 L 643 344 L 643 341 L 647 339 L 648 335 L 650 333 L 650 328 L 648 327 L 647 322 L 653 317 L 656 316 L 657 318 L 659 319 L 662 318 L 665 319 L 667 322 L 673 322 L 681 316 L 689 315 L 689 314 L 691 313 L 696 307 L 697 307 L 698 304 L 700 304 L 707 297 L 710 296 L 715 290 L 715 286 L 712 284 L 713 283 L 712 278 L 716 275 L 717 263 L 713 262 L 710 258 L 710 253 L 709 252 L 708 242 L 707 241 L 707 231 L 703 225 L 701 224 L 701 216 L 703 212 L 703 206 L 700 205 L 701 202 L 700 201 L 700 198 L 698 196 L 699 192 L 697 191 L 700 186 L 700 183 Z">
      <title>Piauí (PI)</title>
    </path>
    <path id="BR-CE" class="state" data-uf="CE" data-name="Ceará" d="M 701 181 L 702 184 L 699 188 L 699 191 L 700 192 L 700 197 L 702 199 L 702 203 L 704 205 L 705 208 L 703 213 L 702 224 L 707 228 L 709 232 L 709 248 L 711 253 L 711 258 L 713 261 L 717 262 L 720 264 L 719 265 L 719 269 L 717 271 L 717 276 L 728 276 L 733 274 L 740 278 L 746 285 L 748 285 L 753 281 L 754 278 L 756 277 L 756 274 L 754 272 L 754 269 L 753 269 L 752 267 L 754 265 L 755 255 L 758 249 L 761 247 L 763 247 L 765 245 L 766 240 L 770 236 L 770 234 L 772 232 L 772 229 L 775 226 L 775 224 L 776 223 L 783 222 L 783 220 L 777 218 L 773 213 L 770 212 L 759 199 L 753 197 L 752 195 L 746 192 L 742 188 L 737 186 L 728 180 L 716 179 L 710 181 Z">
      <title>Ceará (CE)</title>
    </path>
    <path id="BR-RN" class="state" data-uf="RN" data-name="Rio Grande do Norte" d="M 758 251 L 758 253 L 759 253 L 761 256 L 766 257 L 768 255 L 771 254 L 774 250 L 781 249 L 783 247 L 785 247 L 786 250 L 782 254 L 780 261 L 783 261 L 784 263 L 792 262 L 795 266 L 798 265 L 798 256 L 802 253 L 803 253 L 804 255 L 808 255 L 810 257 L 814 257 L 815 256 L 821 256 L 823 258 L 830 257 L 826 245 L 825 237 L 820 229 L 817 229 L 812 227 L 809 227 L 808 228 L 795 228 L 792 225 L 786 225 L 784 223 L 776 224 L 776 226 L 774 227 L 773 232 L 771 236 L 769 237 L 766 245 L 762 249 L 759 249 Z">
      <title>Rio Grande do Norte (RN)</title>
    </path>
    <path id="BR-TO" class="state" data-uf="TO" data-name="Tocantins" d="M 551 230 L 550 231 L 550 234 L 554 234 L 559 240 L 556 242 L 557 246 L 556 249 L 554 250 L 554 254 L 551 255 L 549 257 L 549 260 L 547 262 L 543 263 L 537 267 L 538 273 L 534 278 L 534 282 L 538 285 L 538 290 L 537 291 L 536 297 L 533 300 L 533 302 L 531 305 L 524 311 L 523 314 L 520 317 L 519 323 L 515 330 L 515 332 L 513 334 L 512 340 L 509 345 L 509 350 L 508 351 L 508 355 L 506 360 L 506 365 L 507 366 L 506 371 L 507 372 L 507 379 L 508 380 L 507 388 L 508 391 L 510 391 L 511 387 L 513 385 L 516 384 L 517 385 L 516 387 L 516 393 L 518 393 L 528 398 L 530 400 L 533 400 L 533 398 L 535 396 L 536 393 L 538 392 L 543 393 L 544 391 L 545 393 L 553 400 L 558 399 L 561 401 L 568 403 L 567 400 L 568 398 L 570 398 L 573 400 L 578 400 L 581 398 L 585 397 L 587 395 L 593 395 L 594 393 L 596 392 L 597 384 L 594 378 L 595 375 L 595 371 L 594 370 L 596 369 L 596 366 L 592 364 L 590 361 L 590 359 L 593 357 L 593 355 L 596 352 L 596 349 L 598 348 L 598 346 L 605 342 L 606 339 L 599 336 L 596 336 L 593 333 L 592 329 L 589 326 L 590 325 L 590 321 L 585 317 L 585 314 L 581 312 L 581 310 L 583 307 L 583 302 L 587 297 L 592 296 L 592 289 L 591 288 L 588 288 L 585 289 L 583 291 L 581 291 L 576 285 L 574 281 L 570 277 L 570 275 L 566 272 L 569 271 L 571 268 L 571 262 L 573 258 L 573 243 L 572 242 L 572 237 L 567 234 L 565 234 L 563 231 L 558 232 L 556 230 Z">
      <title>Tocantins (TO)</title>
    </path>
    <path id="BR-PB" class="state" data-uf="PB" data-name="Paraíba" d="M 754 266 L 755 272 L 758 274 L 755 280 L 756 283 L 760 283 L 761 282 L 763 284 L 769 284 L 777 278 L 779 275 L 782 274 L 787 275 L 789 277 L 789 278 L 786 280 L 786 291 L 788 295 L 794 293 L 796 291 L 796 289 L 798 287 L 800 287 L 801 285 L 804 285 L 805 284 L 813 284 L 816 282 L 818 282 L 820 277 L 823 276 L 829 276 L 831 279 L 834 278 L 834 271 L 832 268 L 832 265 L 830 259 L 824 259 L 818 257 L 810 258 L 809 257 L 805 257 L 803 254 L 801 254 L 800 255 L 801 260 L 799 261 L 800 264 L 795 268 L 793 266 L 793 263 L 784 265 L 783 262 L 779 262 L 778 261 L 778 259 L 780 258 L 780 256 L 784 251 L 784 249 L 781 249 L 779 251 L 775 251 L 767 258 L 762 258 L 760 256 L 757 256 L 755 261 L 756 264 Z">
      <title>Paraíba (PB)</title>
    </path>
    <path id="BR-AC" class="state" data-uf="AC" data-name="Acre" d="M 26 278 L 26 281 L 31 285 L 31 289 L 33 291 L 34 296 L 40 301 L 40 303 L 43 305 L 44 308 L 47 311 L 46 314 L 43 317 L 43 319 L 53 319 L 58 321 L 61 324 L 61 327 L 63 328 L 63 332 L 78 332 L 79 331 L 82 331 L 87 325 L 89 325 L 90 323 L 96 319 L 97 320 L 96 323 L 97 326 L 95 328 L 95 351 L 97 352 L 98 354 L 103 354 L 107 351 L 111 351 L 112 352 L 122 351 L 128 353 L 133 353 L 134 355 L 137 355 L 140 353 L 142 353 L 148 345 L 154 345 L 159 342 L 161 339 L 163 338 L 167 338 L 175 331 L 175 329 L 171 328 L 166 325 L 164 325 L 159 322 L 157 322 L 152 319 L 150 319 L 136 312 L 134 312 L 130 309 L 115 302 L 113 300 L 106 297 L 100 293 L 94 292 L 93 291 L 89 291 L 84 289 L 80 289 L 79 288 L 76 288 L 75 287 L 72 287 L 71 286 L 68 286 L 59 283 L 55 283 L 33 273 L 31 273 L 31 274 L 29 276 L 27 276 Z">
      <title>Acre (AC)</title>
    </path>
    <path id="BR-PE" class="state" data-uf="PE" data-name="Pernambuco" d="M 833 280 L 831 280 L 829 277 L 824 277 L 820 280 L 819 283 L 814 284 L 811 286 L 808 285 L 801 286 L 800 288 L 797 289 L 797 292 L 795 294 L 788 296 L 785 293 L 785 290 L 782 290 L 781 289 L 785 284 L 785 281 L 787 279 L 787 277 L 785 275 L 779 277 L 779 278 L 775 280 L 773 283 L 766 286 L 763 286 L 761 284 L 756 285 L 755 283 L 752 283 L 750 284 L 748 287 L 746 287 L 745 284 L 742 284 L 741 283 L 741 280 L 735 276 L 728 276 L 723 278 L 721 277 L 715 277 L 713 278 L 714 285 L 716 286 L 715 293 L 713 294 L 710 298 L 706 299 L 703 302 L 703 304 L 704 304 L 705 306 L 708 307 L 710 311 L 713 314 L 712 320 L 715 320 L 718 318 L 720 318 L 720 314 L 722 312 L 728 311 L 730 306 L 733 306 L 734 303 L 736 303 L 739 301 L 741 301 L 744 304 L 748 306 L 752 306 L 754 308 L 758 307 L 759 310 L 761 310 L 763 312 L 763 316 L 765 316 L 769 313 L 773 307 L 775 310 L 778 310 L 782 312 L 784 315 L 786 315 L 788 317 L 799 316 L 802 315 L 804 312 L 809 308 L 812 307 L 817 308 L 821 306 L 824 308 L 827 308 L 833 290 Z">
      <title>Pernambuco (PE)</title>
    </path>
    <path id="BR-MT" class="state" data-uf="MT" data-name="Mato Grosso" d="M 284 307 L 284 309 L 282 312 L 283 315 L 282 316 L 282 321 L 283 322 L 282 339 L 284 341 L 284 349 L 283 350 L 283 353 L 304 353 L 308 355 L 313 355 L 315 357 L 315 360 L 316 361 L 312 366 L 312 371 L 315 374 L 316 380 L 318 382 L 318 384 L 316 386 L 313 387 L 313 393 L 312 395 L 309 397 L 307 401 L 307 404 L 302 408 L 302 411 L 305 414 L 306 417 L 305 418 L 306 427 L 309 431 L 309 440 L 308 441 L 304 441 L 304 443 L 309 449 L 309 452 L 310 453 L 310 464 L 311 465 L 329 465 L 330 466 L 346 466 L 348 465 L 349 466 L 349 470 L 346 473 L 346 480 L 348 483 L 348 486 L 354 491 L 358 491 L 360 492 L 365 499 L 371 497 L 374 497 L 375 494 L 378 492 L 379 489 L 381 487 L 388 487 L 393 484 L 396 484 L 397 486 L 403 487 L 409 492 L 416 493 L 417 494 L 420 494 L 424 491 L 428 491 L 430 494 L 434 494 L 444 486 L 445 487 L 445 492 L 444 495 L 440 497 L 440 500 L 446 502 L 449 501 L 450 502 L 456 503 L 454 497 L 452 496 L 453 493 L 453 487 L 455 485 L 457 479 L 461 476 L 465 471 L 464 467 L 467 465 L 469 462 L 472 461 L 474 457 L 479 457 L 483 454 L 483 450 L 485 448 L 485 444 L 487 441 L 491 438 L 496 438 L 498 435 L 498 432 L 500 429 L 499 425 L 502 419 L 502 412 L 504 409 L 504 407 L 506 406 L 507 403 L 507 397 L 509 395 L 509 393 L 506 391 L 505 388 L 507 382 L 506 381 L 506 372 L 505 371 L 506 366 L 504 363 L 506 360 L 506 357 L 507 356 L 508 345 L 512 338 L 512 334 L 514 333 L 514 329 L 491 328 L 490 327 L 476 327 L 475 326 L 461 326 L 460 325 L 448 325 L 447 324 L 435 324 L 434 323 L 422 323 L 421 322 L 398 321 L 397 320 L 386 320 L 385 319 L 382 319 L 381 320 L 379 316 L 375 316 L 374 315 L 374 312 L 372 310 L 368 309 L 366 306 L 363 305 L 361 300 L 361 293 L 358 289 L 357 283 L 353 277 L 351 277 L 351 281 L 350 284 L 348 286 L 350 292 L 349 293 L 349 296 L 347 299 L 347 304 L 348 305 L 346 307 Z">
      <title>Mato Grosso (MT)</title>
    </path>
    <path id="BR-RO" class="state" data-uf="RO" data-name="Rondônia" d="M 175 327 L 175 329 L 181 329 L 185 327 L 200 326 L 202 325 L 205 329 L 204 330 L 205 337 L 203 339 L 202 344 L 204 347 L 204 350 L 206 353 L 204 356 L 204 364 L 206 365 L 206 368 L 209 369 L 211 374 L 213 374 L 216 376 L 218 379 L 220 379 L 221 382 L 223 384 L 233 385 L 236 383 L 244 388 L 249 387 L 251 391 L 256 395 L 259 395 L 261 397 L 264 397 L 270 399 L 275 406 L 281 406 L 282 407 L 293 406 L 296 409 L 299 409 L 305 406 L 305 403 L 307 400 L 307 398 L 311 395 L 311 389 L 314 385 L 317 383 L 317 381 L 315 380 L 315 377 L 310 370 L 310 366 L 314 363 L 314 359 L 312 356 L 306 356 L 304 354 L 282 354 L 281 353 L 282 350 L 282 340 L 280 334 L 281 333 L 282 322 L 280 320 L 279 317 L 281 316 L 282 307 L 280 306 L 276 306 L 276 307 L 273 309 L 272 307 L 270 307 L 269 305 L 265 302 L 264 298 L 261 298 L 258 294 L 258 292 L 255 290 L 242 290 L 239 289 L 237 295 L 235 297 L 233 297 L 233 302 L 229 305 L 228 310 L 227 311 L 219 311 L 218 312 L 213 311 L 211 318 L 207 321 L 206 318 L 203 318 L 201 322 L 199 320 L 197 320 L 195 323 L 193 323 L 190 320 L 186 320 L 185 321 L 182 321 L 179 325 Z">
      <title>Rondônia (RO)</title>
    </path>
    <path id="BR-BA" class="state" data-uf="BA" data-name="Bahia" d="M 610 337 L 606 342 L 600 346 L 598 351 L 595 353 L 594 357 L 591 359 L 591 361 L 593 364 L 596 364 L 602 367 L 601 368 L 597 368 L 597 372 L 599 373 L 596 374 L 596 381 L 597 383 L 600 385 L 600 386 L 598 387 L 598 394 L 601 395 L 597 397 L 597 402 L 600 402 L 601 403 L 599 405 L 599 408 L 600 409 L 599 410 L 599 420 L 602 421 L 605 425 L 604 427 L 604 431 L 603 432 L 604 441 L 607 441 L 612 437 L 614 437 L 617 434 L 622 433 L 624 430 L 626 430 L 627 427 L 630 425 L 632 425 L 634 423 L 637 422 L 645 422 L 649 424 L 648 426 L 648 431 L 651 433 L 655 433 L 659 431 L 664 431 L 669 435 L 673 436 L 676 438 L 677 440 L 690 441 L 699 449 L 700 454 L 704 454 L 707 452 L 712 452 L 714 454 L 724 456 L 726 459 L 729 460 L 730 464 L 724 472 L 721 474 L 722 479 L 716 481 L 716 490 L 718 493 L 723 497 L 723 502 L 731 508 L 734 508 L 735 505 L 743 498 L 743 482 L 744 481 L 744 476 L 750 458 L 748 452 L 747 435 L 746 434 L 746 428 L 747 427 L 747 421 L 748 420 L 748 414 L 747 411 L 749 407 L 748 401 L 752 399 L 756 394 L 757 395 L 760 395 L 764 392 L 774 378 L 779 368 L 779 366 L 774 366 L 768 362 L 768 358 L 763 352 L 763 348 L 765 346 L 767 347 L 771 347 L 771 341 L 773 339 L 773 337 L 771 332 L 768 331 L 767 321 L 763 319 L 761 312 L 755 311 L 752 307 L 749 307 L 746 305 L 743 305 L 741 302 L 738 302 L 734 304 L 733 307 L 730 307 L 730 310 L 728 312 L 722 314 L 721 315 L 721 318 L 718 319 L 716 321 L 712 321 L 711 320 L 712 314 L 709 312 L 708 308 L 705 308 L 703 305 L 698 306 L 698 307 L 696 308 L 696 309 L 693 311 L 688 317 L 682 317 L 679 318 L 675 322 L 673 322 L 670 324 L 667 323 L 665 320 L 659 320 L 656 317 L 654 317 L 648 322 L 649 327 L 652 329 L 652 332 L 648 337 L 647 341 L 644 342 L 641 346 L 638 345 L 632 346 L 631 348 L 626 352 L 617 349 L 614 345 L 614 339 L 612 337 Z">
      <title>Bahia (BA)</title>
    </path>
    <path id="BR-AL" class="state" data-uf="AL" data-name="Alagoas" d="M 826 309 L 823 308 L 810 309 L 806 312 L 805 315 L 801 316 L 797 319 L 795 317 L 789 319 L 787 317 L 785 317 L 781 312 L 779 311 L 775 312 L 774 309 L 772 309 L 771 312 L 768 315 L 766 315 L 765 319 L 769 322 L 775 324 L 776 326 L 779 326 L 787 331 L 789 331 L 791 335 L 794 337 L 796 337 L 799 340 L 803 340 L 816 323 L 818 322 L 818 321 L 824 315 Z">
      <title>Alagoas (AL)</title>
    </path>
    <path id="BR-SE" class="state" data-uf="SE" data-name="Sergipe" d="M 769 323 L 768 325 L 769 331 L 771 331 L 773 333 L 774 336 L 773 346 L 771 348 L 768 349 L 767 348 L 764 348 L 764 351 L 765 353 L 767 354 L 767 356 L 769 358 L 769 361 L 770 361 L 772 364 L 780 364 L 785 358 L 788 352 L 795 345 L 798 344 L 798 341 L 797 338 L 794 338 L 791 336 L 789 332 L 784 330 L 780 327 L 777 327 L 775 325 Z">
      <title>Sergipe (SE)</title>
    </path>
    <path id="BR-GO" class="state" data-uf="GO" data-name="Goiás" d="M 596 396 L 587 396 L 582 400 L 576 402 L 570 401 L 570 404 L 568 406 L 565 403 L 559 403 L 558 401 L 550 403 L 548 401 L 548 397 L 546 396 L 546 394 L 543 394 L 542 395 L 536 394 L 533 402 L 525 397 L 515 394 L 513 391 L 511 391 L 509 396 L 509 401 L 503 412 L 503 419 L 501 422 L 501 428 L 500 429 L 499 436 L 494 440 L 490 440 L 488 441 L 486 445 L 485 451 L 482 456 L 479 458 L 474 458 L 473 461 L 471 463 L 469 463 L 468 465 L 466 466 L 467 472 L 465 473 L 462 477 L 458 479 L 458 483 L 456 484 L 455 486 L 454 494 L 457 502 L 456 507 L 457 509 L 463 509 L 464 510 L 461 512 L 461 516 L 463 517 L 467 517 L 468 516 L 470 517 L 471 519 L 474 519 L 477 522 L 479 522 L 485 526 L 492 527 L 494 529 L 496 529 L 500 532 L 502 532 L 503 530 L 509 525 L 509 523 L 512 519 L 516 516 L 527 515 L 531 513 L 532 515 L 534 515 L 537 511 L 542 509 L 551 509 L 552 510 L 555 510 L 556 509 L 559 511 L 565 511 L 568 510 L 571 506 L 574 505 L 575 503 L 574 499 L 576 493 L 572 493 L 570 490 L 573 488 L 573 486 L 576 484 L 577 482 L 577 476 L 575 473 L 572 472 L 575 466 L 575 464 L 574 462 L 556 462 L 555 461 L 555 457 L 558 449 L 573 449 L 576 452 L 576 459 L 583 458 L 585 457 L 585 452 L 583 450 L 584 447 L 583 440 L 586 438 L 589 440 L 591 440 L 591 434 L 593 432 L 598 436 L 601 436 L 602 435 L 602 427 L 603 424 L 597 419 L 597 411 L 598 408 L 596 402 Z">
      <title>Goiás (GO)</title>
    </path>
    <path id="BR-MG" class="state" data-uf="MG" data-name="Minas Gerais" d="M 728 461 L 722 457 L 715 456 L 713 454 L 700 455 L 698 449 L 691 442 L 688 442 L 687 443 L 679 442 L 676 439 L 671 437 L 666 433 L 658 432 L 654 435 L 649 432 L 647 432 L 646 431 L 647 425 L 644 424 L 636 424 L 627 429 L 625 432 L 623 432 L 621 434 L 619 434 L 618 436 L 612 438 L 609 442 L 603 443 L 602 445 L 600 443 L 603 440 L 603 438 L 598 438 L 595 434 L 593 434 L 593 440 L 592 441 L 589 440 L 586 440 L 585 441 L 585 445 L 586 446 L 584 448 L 584 451 L 586 452 L 587 457 L 578 460 L 576 463 L 576 466 L 574 468 L 574 471 L 578 474 L 578 477 L 580 479 L 580 483 L 576 485 L 573 489 L 573 492 L 575 492 L 577 494 L 576 497 L 577 504 L 565 513 L 562 513 L 558 511 L 551 511 L 550 510 L 545 511 L 542 510 L 539 512 L 537 512 L 533 517 L 531 515 L 528 515 L 524 517 L 523 516 L 520 516 L 514 518 L 511 522 L 510 526 L 507 527 L 503 531 L 504 534 L 500 537 L 500 544 L 507 543 L 507 542 L 510 540 L 513 542 L 518 542 L 519 543 L 530 543 L 536 545 L 535 546 L 536 551 L 538 551 L 540 548 L 544 549 L 545 548 L 556 547 L 557 546 L 558 547 L 561 547 L 564 546 L 565 544 L 568 545 L 571 545 L 572 544 L 578 550 L 577 553 L 581 559 L 579 562 L 579 565 L 582 571 L 582 573 L 583 574 L 589 574 L 593 576 L 593 580 L 591 581 L 590 583 L 591 591 L 589 593 L 589 595 L 590 597 L 595 599 L 596 601 L 596 606 L 599 606 L 600 605 L 603 606 L 606 605 L 606 603 L 609 600 L 618 600 L 622 597 L 626 597 L 629 595 L 638 592 L 641 592 L 642 590 L 652 589 L 658 587 L 665 588 L 678 582 L 678 579 L 682 569 L 682 566 L 684 564 L 686 564 L 689 557 L 689 554 L 688 553 L 691 549 L 698 549 L 699 545 L 702 543 L 702 539 L 707 533 L 707 527 L 706 527 L 704 523 L 701 521 L 702 519 L 707 520 L 707 517 L 705 516 L 705 513 L 702 512 L 702 510 L 706 505 L 708 505 L 708 502 L 709 501 L 714 502 L 715 500 L 722 500 L 722 497 L 721 497 L 716 491 L 714 490 L 715 487 L 715 481 L 716 479 L 720 476 L 721 472 L 728 466 Z">
      <title>Minas Gerais (MG)</title>
    </path>
    <path id="BR-DF" class="state" data-uf="DF" data-name="Distrito Federal" d="M 558 450 L 557 460 L 573 460 L 573 458 L 575 455 L 575 452 L 573 450 Z">
      <title>Distrito Federal (DF)</title>
    </path>
    <path id="BR-MS" class="state" data-uf="MS" data-name="Mato Grosso do Sul" d="M 381 489 L 373 499 L 370 499 L 369 500 L 362 499 L 362 501 L 366 507 L 364 508 L 363 514 L 361 518 L 361 523 L 362 524 L 359 526 L 354 536 L 354 541 L 358 545 L 356 547 L 353 548 L 355 554 L 355 557 L 359 564 L 359 573 L 357 575 L 357 580 L 358 581 L 357 582 L 356 589 L 357 590 L 363 589 L 364 591 L 371 591 L 372 592 L 380 593 L 383 591 L 385 591 L 385 590 L 388 588 L 390 592 L 392 593 L 399 593 L 400 595 L 402 596 L 402 599 L 405 602 L 404 608 L 405 609 L 405 612 L 407 614 L 406 621 L 409 625 L 408 628 L 414 630 L 426 626 L 430 630 L 435 630 L 435 626 L 437 622 L 437 619 L 443 616 L 443 614 L 445 612 L 445 608 L 450 604 L 454 603 L 458 598 L 469 592 L 475 583 L 477 582 L 477 578 L 480 576 L 481 574 L 481 570 L 484 566 L 486 565 L 486 560 L 493 552 L 497 551 L 499 548 L 499 541 L 498 539 L 500 536 L 500 534 L 496 530 L 494 530 L 489 527 L 485 527 L 481 524 L 472 521 L 469 517 L 466 518 L 460 517 L 459 516 L 460 510 L 457 510 L 456 509 L 454 503 L 450 503 L 449 504 L 441 503 L 438 500 L 439 498 L 443 495 L 443 489 L 441 489 L 437 492 L 436 495 L 432 495 L 431 496 L 429 495 L 428 493 L 423 493 L 417 496 L 413 496 L 411 494 L 407 493 L 404 490 L 395 487 L 392 487 L 387 489 Z">
      <title>Mato Grosso do Sul (MS)</title>
    </path>
    <path id="BR-ES" class="state" data-uf="ES" data-name="Espírito Santo" d="M 722 502 L 715 501 L 711 506 L 707 506 L 704 508 L 704 512 L 706 513 L 706 516 L 708 518 L 708 520 L 706 521 L 706 524 L 709 528 L 709 531 L 704 538 L 704 540 L 701 544 L 698 550 L 691 550 L 690 552 L 690 559 L 689 562 L 692 563 L 692 569 L 699 570 L 700 571 L 707 571 L 709 569 L 711 563 L 715 561 L 716 558 L 719 557 L 720 552 L 723 549 L 723 545 L 732 535 L 733 532 L 733 528 L 732 527 L 732 512 L 733 509 L 730 508 Z">
      <title>Espírito Santo (ES)</title>
    </path>
    <path id="BR-SP" class="state" data-uf="SP" data-name="São Paulo" d="M 460 598 L 460 600 L 470 600 L 473 601 L 477 598 L 487 602 L 493 601 L 495 603 L 501 604 L 504 607 L 507 606 L 509 607 L 519 607 L 520 606 L 522 609 L 526 611 L 529 615 L 530 618 L 529 619 L 530 628 L 535 634 L 535 636 L 537 638 L 536 640 L 536 644 L 540 644 L 541 643 L 542 644 L 549 644 L 551 646 L 551 651 L 557 651 L 558 654 L 560 656 L 562 656 L 563 653 L 569 647 L 578 642 L 586 634 L 593 631 L 595 629 L 599 630 L 600 627 L 604 625 L 611 625 L 614 626 L 614 623 L 626 616 L 626 612 L 628 608 L 631 606 L 634 606 L 639 604 L 639 602 L 637 601 L 632 602 L 630 600 L 629 597 L 626 597 L 625 598 L 622 598 L 617 602 L 610 602 L 610 605 L 607 607 L 597 608 L 595 606 L 595 604 L 593 603 L 593 600 L 591 599 L 588 595 L 588 585 L 589 582 L 591 580 L 591 577 L 588 575 L 585 575 L 584 576 L 581 575 L 579 570 L 579 567 L 577 564 L 579 560 L 579 557 L 575 554 L 576 552 L 576 548 L 574 548 L 573 545 L 565 546 L 564 548 L 561 548 L 560 549 L 559 548 L 556 549 L 555 548 L 545 549 L 543 555 L 541 553 L 541 550 L 539 550 L 538 552 L 535 551 L 534 549 L 534 545 L 531 544 L 524 544 L 523 545 L 519 543 L 513 543 L 511 541 L 509 541 L 506 544 L 504 544 L 501 546 L 497 552 L 494 552 L 487 560 L 487 565 L 485 566 L 482 570 L 482 574 L 481 576 L 478 578 L 478 581 L 470 592 Z">
      <title>São Paulo (SP)</title>
    </path>
    <path id="BR-RJ" class="state" data-uf="RJ" data-name="Rio de Janeiro" d="M 706 573 L 705 572 L 697 572 L 694 570 L 692 570 L 691 569 L 691 565 L 690 563 L 688 563 L 682 570 L 682 574 L 679 583 L 674 584 L 666 588 L 664 590 L 661 589 L 648 590 L 639 594 L 635 594 L 631 596 L 631 599 L 633 600 L 636 600 L 637 599 L 641 601 L 641 603 L 639 605 L 639 608 L 643 608 L 649 606 L 650 608 L 652 609 L 656 609 L 659 608 L 659 604 L 662 602 L 665 603 L 664 608 L 685 607 L 686 606 L 685 601 L 693 593 L 698 591 L 701 591 L 706 588 L 706 583 L 704 578 L 706 575 Z">
      <title>Rio de Janeiro (RJ)</title>
    </path>
    <path id="BR-PR" class="state" data-uf="PR" data-name="Paraná" d="M 431 633 L 431 635 L 433 638 L 431 640 L 432 643 L 429 649 L 429 655 L 428 658 L 426 660 L 426 664 L 431 664 L 435 662 L 438 664 L 440 664 L 442 667 L 442 670 L 444 676 L 447 679 L 452 678 L 454 680 L 465 680 L 469 682 L 475 682 L 480 685 L 494 686 L 493 682 L 495 679 L 498 677 L 503 678 L 505 677 L 508 673 L 518 673 L 519 672 L 520 673 L 523 673 L 527 676 L 532 676 L 538 672 L 548 672 L 550 670 L 551 667 L 555 664 L 559 659 L 557 653 L 552 652 L 551 654 L 549 653 L 550 646 L 546 646 L 545 645 L 536 646 L 534 644 L 535 637 L 531 632 L 530 629 L 528 628 L 528 617 L 527 616 L 527 613 L 524 611 L 522 611 L 520 608 L 517 608 L 516 609 L 506 608 L 505 609 L 502 605 L 498 605 L 495 603 L 485 603 L 482 602 L 480 600 L 476 600 L 475 602 L 458 601 L 456 603 L 452 604 L 446 608 L 446 611 L 443 617 L 438 619 L 436 629 Z">
      <title>Paraná (PR)</title>
    </path>
    <path id="BR-SC" class="state" data-uf="SC" data-name="Santa Catarina" d="M 550 677 L 548 673 L 536 674 L 534 677 L 530 679 L 526 678 L 524 675 L 514 675 L 513 677 L 512 675 L 508 675 L 505 679 L 502 680 L 497 679 L 495 680 L 495 684 L 496 685 L 491 689 L 489 686 L 479 686 L 475 683 L 470 683 L 464 681 L 458 681 L 457 682 L 453 680 L 446 680 L 444 685 L 444 690 L 445 691 L 444 693 L 444 697 L 450 697 L 451 696 L 455 697 L 458 696 L 464 699 L 469 699 L 470 698 L 480 702 L 481 704 L 487 704 L 488 706 L 493 708 L 494 710 L 497 711 L 499 714 L 505 719 L 505 721 L 506 721 L 507 723 L 509 724 L 517 724 L 518 725 L 522 724 L 525 725 L 527 727 L 527 729 L 522 732 L 522 736 L 523 738 L 521 739 L 521 741 L 524 741 L 525 743 L 527 743 L 527 742 L 537 732 L 545 728 L 548 719 L 548 715 L 549 714 L 549 711 L 548 710 L 548 704 L 549 701 L 548 700 L 548 690 L 547 689 L 547 686 L 549 683 Z">
      <title>Santa Catarina (SC)</title>
    </path>
    <path id="BR-RS" class="state" data-uf="RS" data-name="Rio Grande do Sul" d="M 458 698 L 455 699 L 452 699 L 451 698 L 448 699 L 438 699 L 436 701 L 434 701 L 434 702 L 430 705 L 427 705 L 421 707 L 416 713 L 410 715 L 408 718 L 405 720 L 403 720 L 403 723 L 402 724 L 399 724 L 397 728 L 391 733 L 389 737 L 387 739 L 384 740 L 381 746 L 378 748 L 373 754 L 370 754 L 369 758 L 367 759 L 366 761 L 366 764 L 371 763 L 375 759 L 376 760 L 383 761 L 384 764 L 393 771 L 397 776 L 397 780 L 400 780 L 401 778 L 405 776 L 410 780 L 413 785 L 418 785 L 420 788 L 426 789 L 428 791 L 429 794 L 433 797 L 437 798 L 439 800 L 442 801 L 444 803 L 446 810 L 450 813 L 453 813 L 457 817 L 448 825 L 448 836 L 449 837 L 452 837 L 465 826 L 469 818 L 471 810 L 473 807 L 483 798 L 490 795 L 494 792 L 495 790 L 505 781 L 514 768 L 516 760 L 521 750 L 524 747 L 523 742 L 520 742 L 519 745 L 516 743 L 516 742 L 521 738 L 520 733 L 521 731 L 524 729 L 523 726 L 513 726 L 512 725 L 508 725 L 498 713 L 491 709 L 490 707 L 482 706 L 480 705 L 478 702 L 472 702 L 468 700 L 464 701 L 463 699 L 459 699 Z">
      <title>Rio Grande do Sul (RS)</title>
    </path>
  </g>

  <path id="brazil-outline" class="country-outline" d="M 298 7 L 298 9 L 300 11 L 300 14 L 297 17 L 294 18 L 292 22 L 290 22 L 288 20 L 280 28 L 272 29 L 269 31 L 263 28 L 261 30 L 259 30 L 260 31 L 256 33 L 255 35 L 256 38 L 253 40 L 248 36 L 248 34 L 245 33 L 240 35 L 239 33 L 237 33 L 236 35 L 235 34 L 232 35 L 228 30 L 220 31 L 216 27 L 214 27 L 213 30 L 220 39 L 222 39 L 226 43 L 225 53 L 230 60 L 229 66 L 235 69 L 241 68 L 243 70 L 243 72 L 239 73 L 235 76 L 229 77 L 229 83 L 226 86 L 219 87 L 216 91 L 214 90 L 209 94 L 206 94 L 206 97 L 203 98 L 202 100 L 198 96 L 191 98 L 187 102 L 183 102 L 174 93 L 172 92 L 169 93 L 168 92 L 168 82 L 163 77 L 163 72 L 162 71 L 159 71 L 155 75 L 152 75 L 150 78 L 144 76 L 141 82 L 121 82 L 118 80 L 110 82 L 110 97 L 112 96 L 113 97 L 115 96 L 116 97 L 121 97 L 124 101 L 122 105 L 119 103 L 116 103 L 111 106 L 105 106 L 105 123 L 108 127 L 111 128 L 115 133 L 114 136 L 118 141 L 118 146 L 119 147 L 116 158 L 108 208 L 106 210 L 103 210 L 99 206 L 97 207 L 92 206 L 87 211 L 79 213 L 78 212 L 73 214 L 71 213 L 68 215 L 67 214 L 65 217 L 62 219 L 57 220 L 53 225 L 48 227 L 46 230 L 45 239 L 39 247 L 39 251 L 42 256 L 39 259 L 33 261 L 30 264 L 29 268 L 27 269 L 27 271 L 30 274 L 29 275 L 24 275 L 25 277 L 24 281 L 29 285 L 28 288 L 32 292 L 33 297 L 42 306 L 45 311 L 45 313 L 41 316 L 42 317 L 39 320 L 49 320 L 50 322 L 51 321 L 56 323 L 57 322 L 60 325 L 59 327 L 61 329 L 61 333 L 79 333 L 83 332 L 85 329 L 87 329 L 88 327 L 93 324 L 95 326 L 93 332 L 93 351 L 94 354 L 98 356 L 99 355 L 104 356 L 108 353 L 112 354 L 117 353 L 122 354 L 124 353 L 128 355 L 131 354 L 133 357 L 136 357 L 139 355 L 141 356 L 149 347 L 153 349 L 155 348 L 158 343 L 169 339 L 173 334 L 180 330 L 185 330 L 192 328 L 197 330 L 202 327 L 203 328 L 203 338 L 201 341 L 202 350 L 204 351 L 202 356 L 203 364 L 205 366 L 204 369 L 208 371 L 209 376 L 212 376 L 213 378 L 219 380 L 220 383 L 224 386 L 232 387 L 235 385 L 238 385 L 243 389 L 248 390 L 257 398 L 259 397 L 262 398 L 265 401 L 268 400 L 274 408 L 282 408 L 283 409 L 284 408 L 291 408 L 298 411 L 304 417 L 303 424 L 308 434 L 308 439 L 307 440 L 301 440 L 301 441 L 308 449 L 309 466 L 346 467 L 347 468 L 344 478 L 346 486 L 354 493 L 357 492 L 359 494 L 360 500 L 364 507 L 359 521 L 360 523 L 358 525 L 351 540 L 356 544 L 351 548 L 351 551 L 354 555 L 355 563 L 357 566 L 357 571 L 356 572 L 357 574 L 355 577 L 356 581 L 355 582 L 356 583 L 354 588 L 354 592 L 355 591 L 359 592 L 362 591 L 367 594 L 380 595 L 386 593 L 387 591 L 390 594 L 398 595 L 404 603 L 402 609 L 405 614 L 405 623 L 407 624 L 406 625 L 407 630 L 409 631 L 416 631 L 417 630 L 419 631 L 422 628 L 425 629 L 426 628 L 430 632 L 431 637 L 430 645 L 427 652 L 428 655 L 424 662 L 425 665 L 428 667 L 430 667 L 431 665 L 434 665 L 436 667 L 437 665 L 439 668 L 440 673 L 443 677 L 442 681 L 443 682 L 442 684 L 443 692 L 441 693 L 441 695 L 436 699 L 434 699 L 432 702 L 420 705 L 417 710 L 415 710 L 410 713 L 407 717 L 400 720 L 400 722 L 395 726 L 395 728 L 389 733 L 390 734 L 386 738 L 383 739 L 382 743 L 372 753 L 370 753 L 368 755 L 368 757 L 364 761 L 362 761 L 362 763 L 364 765 L 372 765 L 375 761 L 380 762 L 384 767 L 388 769 L 395 776 L 395 782 L 399 782 L 401 780 L 406 779 L 411 786 L 417 787 L 420 790 L 425 790 L 427 794 L 432 797 L 435 801 L 438 800 L 444 807 L 444 809 L 449 814 L 455 816 L 447 825 L 447 834 L 446 836 L 449 839 L 451 839 L 467 825 L 473 809 L 476 806 L 478 807 L 478 805 L 481 801 L 492 795 L 505 783 L 514 770 L 522 751 L 531 739 L 539 732 L 548 727 L 547 725 L 549 722 L 550 714 L 553 711 L 552 709 L 555 705 L 554 701 L 551 700 L 553 699 L 549 692 L 551 689 L 548 688 L 548 686 L 552 679 L 552 676 L 550 675 L 551 673 L 550 672 L 553 666 L 556 665 L 567 650 L 582 640 L 583 641 L 585 639 L 584 637 L 590 633 L 599 632 L 602 627 L 606 626 L 607 628 L 611 627 L 614 630 L 619 630 L 625 625 L 625 624 L 622 625 L 619 624 L 623 622 L 624 619 L 627 620 L 628 618 L 632 618 L 639 614 L 642 614 L 646 611 L 653 611 L 654 612 L 656 610 L 662 611 L 665 609 L 672 609 L 673 608 L 686 609 L 689 605 L 689 603 L 686 601 L 690 597 L 693 597 L 694 594 L 707 589 L 707 579 L 706 577 L 708 575 L 708 572 L 710 570 L 711 566 L 713 564 L 715 564 L 720 558 L 720 556 L 724 550 L 724 546 L 726 544 L 726 542 L 729 539 L 732 538 L 734 533 L 733 513 L 738 503 L 740 501 L 742 501 L 746 496 L 744 494 L 744 484 L 746 480 L 745 477 L 747 474 L 746 472 L 748 469 L 749 462 L 751 458 L 748 445 L 748 434 L 747 433 L 747 429 L 749 424 L 748 422 L 750 417 L 749 412 L 751 410 L 750 407 L 751 405 L 749 402 L 755 397 L 761 396 L 768 389 L 776 377 L 781 365 L 790 351 L 799 344 L 802 345 L 804 339 L 809 335 L 813 328 L 824 317 L 828 310 L 835 288 L 834 286 L 835 284 L 835 270 L 833 265 L 832 257 L 829 250 L 829 246 L 827 243 L 826 236 L 821 228 L 814 226 L 808 226 L 807 227 L 799 226 L 798 227 L 794 226 L 790 223 L 788 224 L 786 223 L 782 218 L 777 217 L 774 214 L 774 212 L 772 212 L 761 201 L 759 197 L 758 198 L 754 196 L 749 191 L 747 191 L 743 187 L 729 179 L 724 179 L 723 178 L 709 179 L 708 178 L 707 180 L 700 180 L 699 181 L 694 180 L 690 176 L 683 176 L 682 175 L 675 176 L 670 172 L 669 173 L 660 168 L 655 168 L 654 166 L 651 166 L 646 170 L 642 169 L 638 171 L 636 161 L 633 157 L 632 153 L 626 145 L 621 147 L 619 150 L 618 146 L 614 145 L 612 142 L 601 140 L 599 137 L 596 138 L 592 137 L 590 135 L 588 136 L 584 133 L 581 132 L 579 133 L 577 131 L 563 130 L 562 132 L 560 132 L 553 129 L 554 124 L 552 123 L 547 124 L 542 123 L 532 117 L 528 111 L 526 110 L 521 111 L 519 104 L 523 95 L 523 82 L 517 80 L 515 78 L 514 74 L 511 71 L 508 72 L 506 71 L 505 65 L 503 63 L 503 60 L 501 58 L 500 54 L 499 36 L 496 33 L 496 30 L 490 24 L 487 25 L 486 32 L 479 39 L 475 47 L 471 51 L 471 55 L 468 59 L 467 64 L 459 72 L 455 71 L 452 68 L 450 68 L 448 70 L 446 70 L 444 68 L 441 68 L 437 71 L 431 72 L 425 69 L 424 66 L 420 66 L 418 63 L 410 65 L 408 67 L 407 66 L 403 67 L 397 64 L 393 69 L 393 72 L 397 76 L 396 79 L 390 77 L 381 77 L 379 78 L 374 75 L 368 76 L 363 82 L 359 81 L 355 83 L 353 86 L 348 84 L 344 87 L 343 91 L 340 91 L 338 93 L 337 90 L 330 89 L 324 81 L 321 79 L 320 70 L 318 69 L 314 61 L 316 55 L 315 54 L 318 49 L 318 43 L 323 39 L 323 37 L 325 35 L 322 30 L 320 29 L 321 25 L 313 21 L 315 11 L 311 6 Z" />

  <!-- Pontos centrais para posicionamento de bolhas e rótulos dinâmicos. -->
  <g id="state-anchors" aria-hidden="true">
    <circle id="anchor-AC" class="state-anchor" data-uf="AC" cx="97.84" cy="317.2" r="1">
      <title>Âncora para Acre (AC)</title>
    </circle>
    <circle id="anchor-AL" class="state-anchor" data-uf="AL" cx="797.01" cy="322.19" r="1">
      <title>Âncora para Alagoas (AL)</title>
    </circle>
    <circle id="anchor-AM" class="state-anchor" data-uf="AM" cx="216.61" cy="208.63" r="1">
      <title>Âncora para Amazonas (AM)</title>
    </circle>
    <circle id="anchor-AP" class="state-anchor" data-uf="AP" cx="480.58" cy="88.71" r="1">
      <title>Âncora para Amapá (AP)</title>
    </circle>
    <circle id="anchor-BA" class="state-anchor" data-uf="BA" cx="691.54" cy="384.38" r="1">
      <title>Âncora para Bahia (BA)</title>
    </circle>
    <circle id="anchor-CE" class="state-anchor" data-uf="CE" cx="734.78" cy="227.18" r="1">
      <title>Âncora para Ceará (CE)</title>
    </circle>
    <circle id="anchor-DF" class="state-anchor" data-uf="DF" cx="565.68" cy="455.01" r="1">
      <title>Âncora para Distrito Federal (DF)</title>
    </circle>
    <circle id="anchor-ES" class="state-anchor" data-uf="ES" cx="713.46" cy="536.13" r="1">
      <title>Âncora para Espírito Santo (ES)</title>
    </circle>
    <circle id="anchor-GO" class="state-anchor" data-uf="GO" cx="527.37" cy="461.25" r="1">
      <title>Âncora para Goiás (GO)</title>
    </circle>
    <circle id="anchor-MA" class="state-anchor" data-uf="MA" cx="618.06" cy="226.75" r="1">
      <title>Âncora para Maranhão (MA)</title>
    </circle>
    <circle id="anchor-MG" class="state-anchor" data-uf="MG" cx="630.97" cy="512.23" r="1">
      <title>Âncora para Minas Gerais (MG)</title>
    </circle>
    <circle id="anchor-MS" class="state-anchor" data-uf="MS" cx="420.3" cy="552.3" r="1">
      <title>Âncora para Mato Grosso do Sul (MS)</title>
    </circle>
    <circle id="anchor-MT" class="state-anchor" data-uf="MT" cx="398.33" cy="394.74" r="1">
      <title>Âncora para Mato Grosso (MT)</title>
    </circle>
    <circle id="anchor-PA" class="state-anchor" data-uf="PA" cx="456.75" cy="204.46" r="1">
      <title>Âncora para Pará (PA)</title>
    </circle>
    <circle id="anchor-PB" class="state-anchor" data-uf="PB" cx="792.95" cy="270.87" r="1">
      <title>Âncora para Paraíba (PB)</title>
    </circle>
    <circle id="anchor-PE" class="state-anchor" data-uf="PE" cx="768.53" cy="296.44" r="1">
      <title>Âncora para Pernambuco (PE)</title>
    </circle>
    <circle id="anchor-PI" class="state-anchor" data-uf="PI" cx="665.6" cy="276.82" r="1">
      <title>Âncora para Piauí (PI)</title>
    </circle>
    <circle id="anchor-PR" class="state-anchor" data-uf="PR" cx="486.44" cy="643.72" r="1">
      <title>Âncora para Paraná (PR)</title>
    </circle>
    <circle id="anchor-RJ" class="state-anchor" data-uf="RJ" cx="674.49" cy="591.15" r="1">
      <title>Âncora para Rio de Janeiro (RJ)</title>
    </circle>
    <circle id="anchor-RN" class="state-anchor" data-uf="RN" cx="796.38" cy="242.73" r="1">
      <title>Âncora para Rio Grande do Norte (RN)</title>
    </circle>
    <circle id="anchor-RO" class="state-anchor" data-uf="RO" cx="255.3" cy="351.82" r="1">
      <title>Âncora para Rondônia (RO)</title>
    </circle>
    <circle id="anchor-RR" class="state-anchor" data-uf="RR" cx="285.14" cy="74.9" r="1">
      <title>Âncora para Roraima (RR)</title>
    </circle>
    <circle id="anchor-RS" class="state-anchor" data-uf="RS" cx="453.43" cy="753.52" r="1">
      <title>Âncora para Rio Grande do Sul (RS)</title>
    </circle>
    <circle id="anchor-SC" class="state-anchor" data-uf="SC" cx="511.29" cy="699.51" r="1">
      <title>Âncora para Santa Catarina (SC)</title>
    </circle>
    <circle id="anchor-SE" class="state-anchor" data-uf="SE" cx="780.08" cy="344.76" r="1">
      <title>Âncora para Sergipe (SE)</title>
    </circle>
    <circle id="anchor-SP" class="state-anchor" data-uf="SP" cx="545.83" cy="593.08" r="1">
      <title>Âncora para São Paulo (SP)</title>
    </circle>
    <circle id="anchor-TO" class="state-anchor" data-uf="TO" cx="554.49" cy="335.66" r="1">
      <title>Âncora para Tocantins (TO)</title>
    </circle>
  </g>
</svg>
